<?xml version="1.0" encoding="UTF-8"?>
<svg width="22px" height="33px" viewBox="0 0 22 33" version="1.1" xmlns="http://www.w3.org/2000/svg" xmlns:xlink="http://www.w3.org/1999/xlink">
    <!-- Generator: Sketch 57.1 (83088) - https://sketch.com -->
    <title>logo-tomostatus</title>
    <desc>Created with Sketch.</desc>
    <g id="Page-1" stroke="none" stroke-width="1" fill="none" fill-rule="evenodd">
        <g id="Status-page-1" transform="translate(-709.000000, -19.000000)">
            <g id="logo-tomostatus" transform="translate(709.000000, 19.000000)">
                <g id="Group-21">
                    <g id="Group-5">
                        <polygon id="Fill-18" fill="#FFFFFF" points="5.49578519 0 5.49578519 10.9920741 0.000377777778 16.4887407 0.000377777778 5.49666667"></polygon>
                        <path d="M21.9841481,21.9852815 C21.9841481,28.0549111 17.062963,32.9773556 10.9920741,32.9773556 C4.91992593,32.9773556 7.10542736e-15,28.0549111 7.10542736e-15,21.9852815 L7.10542736e-15,16.4886148 L5.49540741,16.4886148 L5.49540741,21.9852815 C5.49540741,25.0150593 7.96103704,27.4806889 10.9920741,27.4806889 C14.0231111,27.4806889 16.4887407,25.0150593 16.4887407,21.9852815 L21.9841481,21.9852815 Z" id="Fill-19" fill="#FFFFFF"></path>
                        <polygon id="Fill-20" fill="#00E8B4" points="21.9841481 10.9925778 16.4887407 16.4879852 7.10542736e-15 16.4879852 5.49540741 10.9925778"></polygon>
                    </g>
                </g>
            </g>
        </g>
    </g>
</svg>